<svg xmlns="http://www.w3.org/2000/svg" xmlns:xlink="http://www.w3.org/1999/xlink" preserveAspectRatio="xMidYMid" width="36" height="21" viewBox="0 0 36 21">
  <defs>
    <style>
      .cls-1 {
        fill: #e6e6e6;
        fill-rule: evenodd;
      }
    </style>
  </defs>
  <path d="M35.492,20.876 C35.009,21.134 34.391,20.981 34.112,20.534 L18.000,2.319 L1.888,20.534 C1.609,20.981 0.991,21.134 0.508,20.876 C0.025,20.618 -0.141,20.047 0.138,19.600 L17.062,0.467 C17.243,0.177 17.568,0.027 17.906,0.017 C17.938,0.012 17.968,0.012 18.000,0.011 C18.032,0.012 18.062,0.012 18.094,0.017 C18.431,0.027 18.757,0.177 18.938,0.467 L35.862,19.600 C36.141,20.047 35.975,20.618 35.492,20.876 Z" class="cls-1"/>
</svg>
