<svg width="512" height="512" xmlns="http://www.w3.org/2000/svg">

 <g>
  <title>background</title>
  <rect fill="none" id="canvas_background" height="402" width="582" y="-1" x="-1"/>
 </g>
 <g>
  <title>Layer 1</title>
  <path fill="#ffffff" id="svg_5" d="m256,419c-2.047,0 -4.095,-0.781 -5.657,-2.343l-151,-151c-1.562,-1.562 -2.343,-3.609 -2.343,-5.657s0.781,-4.095 2.343,-5.657c3.124,-3.124 8.189,-3.124 11.313,0l145.344,145.344l145.343,-145.343c3.125,-3.124 8.189,-3.124 11.314,0c3.124,3.125 3.124,8.189 0,11.314l-151,151c-1.562,1.561 -3.609,2.342 -5.657,2.342z"/>
  <path fill="#ffffff" id="svg_7" d="m256,260c-2.047,0 -4.095,-0.781 -5.657,-2.343l-151,-151c-1.562,-1.562 -2.343,-3.61 -2.343,-5.657s0.781,-4.095 2.343,-5.657c3.124,-3.124 8.189,-3.124 11.313,0l145.344,145.343l145.343,-145.343c3.125,-3.124 8.189,-3.124 11.314,0c3.124,3.124 3.124,8.189 0,11.313l-151,151c-1.562,1.563 -3.609,2.344 -5.657,2.344z"/>
 </g>
</svg>