<svg xmlns="http://www.w3.org/2000/svg" width="24" height="24" fill="none" viewBox="0 0 24 24">
    <g clip-path="url(#a)">
        <path fill="#fff" d="M13.62 23.953H9.77a1.167 1.167 0 0 1-1.167-1.164V14.12H6.356a1.167 1.167 0 0 1-1.166-1.164V9.24c0-.642.523-1.164 1.166-1.164h2.247v-1.86c0-1.845.58-3.414 1.678-4.538C11.384.55 12.924-.047 14.737-.047l2.937.005a1.167 1.167 0 0 1 1.164 1.164v3.449c0 .642-.523 1.164-1.166 1.164l-1.977.001c-.603 0-.757.12-.79.158-.054.061-.118.234-.118.713v1.47h2.737A1.168 1.168 0 0 1 18.7 9.242l-.002 3.714c0 .642-.523 1.164-1.166 1.164h-2.746v8.669c0 .642-.523 1.164-1.167 1.164zm-3.607-1.407h3.364V13.49c0-.428.35-.777.779-.777h3.134l.001-3.229h-3.135a.779.779 0 0 1-.779-.777v-2.1c0-.55.056-1.175.472-1.644.502-.568 1.294-.634 1.846-.634h1.734V1.364l-2.693-.005c-2.913 0-4.723 1.861-4.723 4.857v2.49c0 .428-.35.777-.779.777H6.6v3.229h2.634c.43 0 .779.349.779.777v9.056zM17.67 1.365z"/>
    </g>
    <defs>
        <clipPath id="a">
            <path fill="#fff" d="M0 0h24v24H0z"/>
        </clipPath>
    </defs>
</svg>
