<svg xmlns="http://www.w3.org/2000/svg" width="80" height="80" fill="none" viewBox="0 0 80 80">
    <g fill="#fff" clip-path="url(#a)">
        <path d="M71.263 66.807a1.333 1.333 0 0 0-1.194 2.385c.072.036 7.264 3.725 7.264 9.475a1.334 1.334 0 0 0 2.667 0c0-7.406-8.38-11.682-8.737-11.86zM40 0C25.604 0 13.233 8.823 8 21.343V7.755C9.55 7.2 10.667 5.736 10.667 4c0-2.205-1.795-4-4-4-2.206 0-4 1.795-4 4 0 1.736 1.117 3.201 2.666 3.753v26.914c0 8.404 3.007 16.115 8 22.124v10.524c0 .41.191.8.515 1.052 7.55 5.866 16.592 8.966 26.152 8.966 9.56 0 18.604-3.1 26.152-8.966.324-.252.515-.642.515-1.052V56.79c4.993-6.008 8-13.72 8-22.124C74.667 15.552 59.115 0 40 0zM6.667 5.333A1.335 1.335 0 0 1 5.333 4c0-.735.6-1.333 1.334-1.333C7.4 2.667 8 3.265 8 4s-.599 1.333-1.333 1.333zM64 66.656c-6.97 5.243-15.255 8.01-24 8.01s-17.028-2.767-24-8.01v-7.01c6.235 5.993 14.692 9.687 24 9.687s17.765-3.694 24-9.686v7.009zm.559-11.503a1.32 1.32 0 0 0-.415.479C58.274 62.385 49.629 66.667 40 66.667c-17.644 0-32-14.356-32-32 0-17.645 14.356-32 32-32s32 14.356 32 32c0 7.788-2.8 14.932-7.441 20.486zM8.737 66.807C8.38 66.985 0 71.26 0 78.667a1.334 1.334 0 0 0 2.667 0c0-5.75 7.192-9.439 7.264-9.475a1.333 1.333 0 0 0-1.194-2.385z"/>
        <path d="M21.379 42.453c.097 1.476.414 4.113 1.428 6.143a1.334 1.334 0 0 0 2.386-1.192C24.02 45.057 24 41.369 24 41.332A1.334 1.334 0 0 0 22.667 40a1.335 1.335 0 0 1-1.334-1.334v-5.333c0-.361.145-.69.38-.93.53 1.191 1.656 2.264 3.62 2.264.506 0 .967-.286 1.194-.738 1.107-2.215.724-5.505.386-8.41l-.1-.869c6.166 1.823 17.776 1.81 23.854-.044v6.06a1.334 1.334 0 0 0 2.666 0v-8c0-.462-.24-.89-.632-1.134a1.337 1.337 0 0 0-1.297-.059c-5 2.5-20.475 2.5-25.475 0a1.338 1.338 0 0 0-1.297.059A1.337 1.337 0 0 0 24 22.666c0 .886.128 1.991.264 3.162.228 1.956.5 4.3.192 5.917-.345-.267-.447-.698-.456-1.079 0-.736-.597-1.333-1.333-1.333-2.206 0-4 1.795-4 4v5.333a4.006 4.006 0 0 0 2.712 3.787z"/>
        <path d="M44 37.333h1.333a1.334 1.334 0 0 0 2.667 0h1.333a1.334 1.334 0 0 0 0-2.666H44a1.334 1.334 0 0 0 0 2.666z"/>
        <path d="M20 28c.736 0 1.333-.597 1.333-1.333v-1.334c0-1.501.524-14.666 18.667-14.666 13.224 0 16 7.976 16 14.666v5.334c0 .736.597 1.333 1.333 1.333.735 0 1.334.599 1.334 1.333v5.334c0 .734-.599 1.333-1.334 1.333-.736 0-1.332.597-1.333 1.332 0 .035-.017 3.215-.957 5.548-1.282.314-4.919 1.028-11.292 1.105-.558-1.541-2.02-2.652-3.751-2.652-2.205 0-4 1.795-4 4s1.795 4 4 4c1.74 0 3.208-1.122 3.757-2.676 8.66-.1 12.5-1.337 12.664-1.392.336-.112.614-.352.773-.67 1.013-2.029 1.33-4.666 1.427-6.142a4.006 4.006 0 0 0 2.712-3.787v-5.333a4.008 4.008 0 0 0-2.666-3.772v-4.228C58.667 14.317 51.863 8 40 8c-8.353 0-14.436 2.54-18.079 7.55-3.097 4.26-3.254 8.897-3.254 9.783v1.334c0 .736.597 1.333 1.333 1.333zm20 22.667a1.335 1.335 0 0 1-1.333-1.334C38.667 48.6 39.265 48 40 48s1.333.599 1.333 1.333c0 .735-.598 1.334-1.333 1.334z"/>
        <path d="M65.067 48.533a1.334 1.334 0 0 0-1.867-.267C63.097 48.345 52.741 56 40 56c-12.71 0-23.097-7.657-23.2-7.733a1.334 1.334 0 0 0-1.6 2.133c.45.337 11.179 8.267 24.8 8.267s24.35-7.93 24.8-8.267c.59-.441.708-1.277.267-1.867zM37.333 36c0-.736-.597-1.333-1.333-1.333h-5.333a1.334 1.334 0 0 0 0 2.666H32a1.334 1.334 0 0 0 2.667 0H36c.736 0 1.333-.597 1.333-1.333z"/>
    </g>
    <defs>
        <clipPath id="a">
            <path fill="#fff" d="M0 0h80v80H0z"/>
        </clipPath>
    </defs>
</svg>
