<svg xmlns="http://www.w3.org/2000/svg" width="80" height="80" fill="none" viewBox="0 0 80 80">
    <g fill="#fff" clip-path="url(#a)">
        <path d="M78.667 5.333a4.004 4.004 0 0 1-4-4 1.333 1.333 0 0 0-2.667 0 4.004 4.004 0 0 1-4 4A1.333 1.333 0 0 0 68 8a4.004 4.004 0 0 1 4 4 1.333 1.333 0 0 0 2.667 0 4.004 4.004 0 0 1 4-4 1.333 1.333 0 0 0 0-2.667zm-5.334 2.708a6.708 6.708 0 0 0-1.374-1.374 6.708 6.708 0 0 0 1.374-1.375c.39.522.853.986 1.375 1.375a6.706 6.706 0 0 0-1.375 1.374zM33.333 24a4.004 4.004 0 0 1 4 4A1.333 1.333 0 0 0 40 28a4.004 4.004 0 0 1 4-4 1.333 1.333 0 0 0 0-2.667 4.004 4.004 0 0 1-4-4 1.333 1.333 0 0 0-2.667 0 4.004 4.004 0 0 1-4 4 1.333 1.333 0 0 0 0 2.667zm5.334-2.708c.388.522.852.986 1.374 1.375a6.705 6.705 0 0 0-1.374 1.374 6.708 6.708 0 0 0-1.375-1.374 6.71 6.71 0 0 0 1.375-1.375zM64.572 47.906a23.971 23.971 0 0 0-45.252.298c-6.553 1.418-13.987 4.006-13.987 8.463 0 4.564 7.756 7.173 14.562 8.586A24.127 24.127 0 0 0 42 80a23.857 23.857 0 0 0 21.99-14.46C70.281 64.358 80 61.717 80 56.667c0-4.718-8.214-7.353-15.428-8.76zm-43.82 6.425c.115-1.557.401-3.095.852-4.59 2.978-9.771 12.467-16.057 22.625-14.988 10.158 1.07 18.13 9.192 19.009 19.369v.002c.054.619.095 1.242.095 1.876-.002.725-.046 1.45-.13 2.17l-.622.084a98.989 98.989 0 0 1-2.262.261c-.36.037-.72.075-1.092.11-.435.041-.884.079-1.334.117-.38.031-.76.064-1.15.093-.474.036-.962.068-1.449.1-.39.025-.774.052-1.171.075-.512.03-1.037.056-1.562.082-.394.02-.782.04-1.183.057-.554.024-1.12.042-1.684.062-.385.013-.764.029-1.153.039-.641.018-1.293.03-1.945.042-.321.006-.638.015-.962.02a214.738 214.738 0 0 1-6.215-.003c-.347-.006-.685-.016-1.028-.023-.718-.014-1.435-.028-2.138-.05-.405-.012-.797-.03-1.196-.045-.625-.022-1.254-.044-1.864-.073-.418-.02-.821-.044-1.231-.066-.571-.03-1.144-.061-1.699-.097-.413-.026-.811-.057-1.215-.086-.528-.038-1.056-.077-1.566-.119-.397-.033-.779-.07-1.164-.105a120.79 120.79 0 0 1-1.442-.142c-.375-.04-.736-.083-1.097-.125a89.388 89.388 0 0 1-1.31-.161 86.394 86.394 0 0 1-1.015-.143c-.232-.034-.453-.07-.678-.105a18.748 18.748 0 0 1-.11-1.969c0-.563.044-1.117.087-1.67zM42 77.333a21.464 21.464 0 0 1-18.898-11.48c.78.13 1.577.25 2.386.363.242.033.49.062.735.095.584.077 1.172.152 1.769.22.314.037.633.069.95.102.543.058 1.087.113 1.64.164.341.031.686.06 1.03.088a110.547 110.547 0 0 0 2.703.195c.567.035 1.138.065 1.714.092.343.016.685.034 1.03.047.627.025 1.257.043 1.89.06.3.008.597.02.898.025.934.018 1.874.028 2.82.03 1.46 0 2.906-.03 4.34-.074.219-.007.44-.011.658-.02a127.181 127.181 0 0 0 4.782-.259c1.328-.096 2.638-.208 3.917-.344.172-.018.339-.039.51-.058 1.273-.14 2.52-.298 3.73-.476.06-.009.127-.014.186-.024A21.203 21.203 0 0 1 42 77.333zm20.82-14.288a117.353 117.353 0 0 1-20.153 1.622c-2.952 0-5.844-.092-8.636-.272-4.34-.258-8.657-.798-12.926-1.614C12.052 60.988 8 58.419 8 56.667c0-1.56 3.27-3.806 10.509-5.546-.014.068-.02.14-.034.208-.036.19-.06.386-.091.578-.067.397-.142.79-.19 1.195C13.81 53.968 12 55.025 12 56.666c0 1.776 2.128 2.87 7.346 3.778A148.207 148.207 0 0 0 42.666 62c7.33.064 14.655-.38 21.923-1.328 7.685-1.153 8.744-2.606 8.744-4.005 0-1.786-2.204-2.913-7.552-3.816-.05-.383-.13-.759-.198-1.137-.04-.22-.07-.44-.115-.657-.017-.084-.026-.172-.044-.256 8.165 1.77 11.91 4.223 11.91 5.866 0 1.824-4.542 4.599-14.513 6.378zM18.06 57.478a16.442 16.442 0 0 1-2.797-.811c.89-.347 1.808-.615 2.744-.801 0 .045-.006.088-.006.134 0 .477.021.967.059 1.478zm47.93-1.88c1.395.216 2.764.575 4.086 1.07a20.844 20.844 0 0 1-4.153 1.08c.051-.606.078-1.184.078-1.748 0-.128-.008-.269-.01-.401zM66.667 17.333A6.667 6.667 0 1 0 60 24a6.675 6.675 0 0 0 6.667-6.667zm-10.667 0a4 4 0 1 1 8 0 4 4 0 0 1-8 0zM77.333 36a4 4 0 1 0-8 0 4 4 0 0 0 8 0zM72 36a1.333 1.333 0 1 1 2.667 0A1.333 1.333 0 0 1 72 36zM31.97 15.378v-.006a15.905 15.905 0 0 0-1.18-5.47A16.002 16.002 0 0 0 .627 11.6v.001a15.887 15.887 0 0 0-.307 7.591 15.992 15.992 0 0 0 27.148 7.953v-.001A15.91 15.91 0 0 0 32 16c0-.146-.008-.29-.018-.434l-.011-.188zM18.392 2.89c-.03.024-.065.047-.096.07a12.081 12.081 0 0 1-1.7 1.083c-.044.023-.084.048-.128.07-.323.165-.663.317-1.016.458-.068.027-.14.051-.208.077-.302.114-.615.218-.94.312-.08.024-.161.048-.244.07-.847.224-1.713.366-2.587.424-.098.007-.198.011-.298.016a16.1 16.1 0 0 1-1.233.012c-.09-.003-.177-.002-.268-.006a18.389 18.389 0 0 1-1.566-.14c-.022-.002-.046-.007-.068-.01A13.335 13.335 0 0 1 18.391 2.89zM5.662 7.606c.112.025.217.04.327.063a25.639 25.639 0 0 0 1.438.258c.264.039.523.07.78.099.201.022.402.043.598.059.258.02.51.035.76.045.185.008.37.016.552.018.085.002.176.01.26.01.078 0 .146-.013.222-.014a17.723 17.723 0 0 0 1.877-.114c.075-.009.145-.022.22-.033.56-.073 1.114-.177 1.662-.308.06-.015.122-.026.18-.04a15.25 15.25 0 0 0 1.535-.485c.09-.033.18-.064.268-.098.465-.183.904-.381 1.321-.593l.242-.126c.411-.219.803-.447 1.166-.684.05-.033.097-.066.146-.1.367-.246.714-.497 1.031-.75l.033-.025c.327-.263.622-.525.897-.784l.104-.097.098-.091a13.38 13.38 0 0 1 6.482 6.101c-.047.029-.092.06-.14.09-.168.1-.338.191-.508.286-.223.124-.445.247-.668.36-.178.09-.356.174-.534.258-.215.101-.43.2-.642.29a21.644 21.644 0 0 1-1.142.445 12.985 12.985 0 0 1-1.071.33c-.15.04-.3.081-.442.113a8.87 8.87 0 0 1-.523.096c-.123.02-.25.044-.362.056-.158.015-.316.02-.474.018-.08 0-.173.008-.245.002a1.44 1.44 0 0 1-.514-.12 6.74 6.74 0 0 0-.793-.334c-.087-.03-.174-.05-.26-.076a6.707 6.707 0 0 0-.534-.147c-.103-.022-.207-.036-.312-.054a7.333 7.333 0 0 0-.49-.071c-.11-.012-.223-.018-.335-.026a9.312 9.312 0 0 0-.486-.02c-.047-.001-.092-.006-.138-.006-.044 0-.091.006-.135.007-.409.004-.826.026-1.259.064l-.207.02a64.74 64.74 0 0 0-1.377.15c-1.636.22-3.286.338-4.937.352-.456 0-.913-.028-1.366-.067a20.166 20.166 0 0 1-1.603-.2c-.06-.01-.117-.022-.176-.033a24.765 24.765 0 0 1-1.127-.228l-.259-.059c-.392-.094-.77-.192-1.128-.294L3.61 11.1a13.418 13.418 0 0 1 2.051-3.495zM2.855 17.672l-.084-.005a13.033 13.033 0 0 1 .108-3.999c.13.038.255.064.384.099.238.065.473.123.708.181.406.1.806.19 1.202.27.226.044.452.089.675.127.415.07.821.125 1.225.172.187.022.377.05.561.067.579.051 1.147.083 1.7.083a42.644 42.644 0 0 0 5.249-.37c2.125-.251 3.528-.418 4.82.23.302.146.621.251.95.312.106.02.225.018.334.03.232.037.464.059.698.065.015 0 .033-.003.049-.004.13 0 .27-.022.405-.03.25-.016.5-.029.76-.068.16-.024.325-.065.489-.098.245-.049.488-.094.736-.16.177-.046.354-.104.53-.158.242-.072.48-.143.722-.227.184-.065.364-.138.548-.208.232-.09.463-.18.692-.277.186-.08.365-.163.547-.247.221-.101.439-.202.653-.309.18-.089.35-.179.524-.27.204-.109.405-.216.6-.326.066-.037.139-.073.204-.11.192.707.326 1.43.4 2.16-.157.072-.312.146-.472.216a22.815 22.815 0 0 1-1.66.641c-.243.085-.485.17-.733.248-.34.108-.688.208-1.037.306-.245.069-.488.14-.736.204-.377.097-.762.184-1.146.271-.231.052-.46.108-.692.156-.452.094-.91.176-1.368.257-.173.03-.345.066-.52.095-.637.105-1.278.2-1.923.282-.11.014-.22.024-.329.037-.538.066-1.076.128-1.615.18-.208.02-.415.035-.624.054-.438.038-.878.076-1.314.106-.23.016-.458.028-.687.042-.413.025-.825.05-1.233.068a96.305 96.305 0 0 1-2.535.077c-.392.006-.78.01-1.161.013h-.61c-.387 0-.768-.003-1.141-.008l-.532-.008c-.384-.007-.755-.016-1.12-.027l-.454-.013c-.373-.013-.728-.027-1.076-.042l-.373-.016c-.37-.017-.717-.036-1.052-.055l-.246-.014zM16 29.334a13.257 13.257 0 0 1-5.616-1.254c.622.073 1.245.131 1.865.18l.237.019c.804.058 1.599.093 2.369.094l.073.003h.043l.135-.004c.322-.002.641-.008.953-.022l.066-.005c.33-.016.656-.037.971-.07.035-.002.066-.008.1-.012.301-.032.598-.068.881-.116.316-.052.622-.113.913-.186a17.758 17.758 0 0 1 1.918-.362c.028-.003.057-.009.085-.013a20.87 20.87 0 0 1 1.782-.15l.09-.005A13.21 13.21 0 0 1 16 29.334zm9.98-4.504l-.052-.003a28.462 28.462 0 0 0-3.319-.051l-.321.018c-.573.034-1.16.086-1.76.167-.083.011-.164.026-.247.039-.64.093-1.287.21-1.938.373-.454.11-.915.19-1.38.237-.204.023-.431.027-.646.041-.3.021-.594.048-.909.054-.26.005-.534-.005-.803-.009-.29-.004-.575-.002-.873-.015-.285-.012-.576-.035-.865-.056-.29-.02-.578-.035-.868-.061-.294-.027-.585-.061-.877-.094-.288-.03-.578-.06-.862-.097-.28-.035-.552-.074-.826-.113-.289-.04-.58-.081-.861-.124-.25-.04-.488-.08-.728-.12-.287-.047-.575-.095-.846-.143a61.262 61.262 0 0 1-1.112-.21 13.387 13.387 0 0 1-2.483-4.289c.401.02.825.04 1.267.059l.486.016a90.211 90.211 0 0 0 1.95.053c.442.008.897.012 1.362.014.162 0 .311.005.475.005.087 0 .183-.004.27-.004a96.56 96.56 0 0 0 2.01-.028l.668-.016a89.933 89.933 0 0 0 2.334-.103l.607-.039a74.132 74.132 0 0 0 2.521-.201l.177-.019c.832-.085 1.666-.19 2.498-.307.179-.025.356-.048.534-.075a52.36 52.36 0 0 0 2.502-.439c.168-.034.334-.07.501-.106.857-.182 1.704-.38 2.527-.61.03-.008.057-.018.086-.026.8-.225 1.572-.482 2.326-.76.142-.051.286-.1.427-.155.103-.04.213-.074.315-.115a13.238 13.238 0 0 1-3.267 7.312z"/>
        <path d="M57.812 53.537a1.334 1.334 0 0 0 2.635-.407 18.665 18.665 0 0 0-.498-2.272 1.333 1.333 0 0 0-2.564.732c.183.64.325 1.29.427 1.947zM42 40a16.067 16.067 0 0 1 12.924 6.565 1.334 1.334 0 0 0 2.152-1.574A18.74 18.74 0 0 0 42 37.333 1.333 1.333 0 0 0 42 40z"/>
    </g>
    <defs>
        <clipPath id="a">
            <path fill="#fff" d="M0 0h80v80H0z"/>
        </clipPath>
    </defs>
</svg>
