<svg xmlns="http://www.w3.org/2000/svg" width="80" height="80" fill="none" viewBox="0 0 80 80">
    <g fill="#fff" clip-path="url(#a)">
        <path d="M79.549 1.624A1.512 1.512 0 0 0 78.234.309a41.536 41.536 0 0 0-18.5 1.932 41.54 41.54 0 0 0-15.778 9.853L33.88 22.171l-14.546 1.876c-.331.043-.639.194-.875.43L4.434 38.501a1.512 1.512 0 0 0 .794 2.556l10.604 1.964 2.084 2.084-4.436 2.402a1.512 1.512 0 0 0-.35 2.399l16.822 16.82a1.513 1.513 0 0 0 2.398-.348l2.403-4.436 2.083 2.083L38.8 74.63a1.512 1.512 0 0 0 2.556.794L55.38 61.399c.237-.237.388-.545.431-.876l1.876-14.546 10.077-10.076a41.54 41.54 0 0 0 9.853-15.777 41.541 41.541 0 0 0 1.932-18.5zM16.062 39.989l-7.457-1.381L20.232 26.98l10.147-1.308-14.317 14.317zm14.595 23.167L16.702 49.2l3.444-1.865 12.376 12.376-1.865 3.444zm22.22-3.53L41.25 71.251l-1.381-7.456 14.317-14.318-1.309 10.147zm12.748-25.863L38.237 61.15l-19.53-19.53 27.388-27.387a38.497 38.497 0 0 1 14.17-8.97 18.133 18.133 0 0 0 4.97 9.36 18.134 18.134 0 0 0 9.36 4.97 38.506 38.506 0 0 1-8.97 14.17zm9.88-17.075a15.105 15.105 0 0 1-8.132-4.204 15.103 15.103 0 0 1-4.203-8.131 38.58 38.58 0 0 1 13.505-1.17c.414 4.517.01 9.122-1.17 13.505z"/>
        <path d="M44.62 22.266c-3.577 3.576-3.577 9.395 0 12.972a9.143 9.143 0 0 0 6.486 2.682 9.145 9.145 0 0 0 6.486-2.682c3.577-3.576 3.577-9.396 0-12.972-3.576-3.577-9.396-3.577-12.972 0zM55.454 33.1a6.156 6.156 0 0 1-8.696 0 6.156 6.156 0 0 1 0-8.696 6.13 6.13 0 0 1 4.348-1.798c1.575 0 3.149.6 4.347 1.798a6.156 6.156 0 0 1 0 8.696zM19.83 60.312a1.512 1.512 0 0 0-2.138 0L4.72 73.285a1.512 1.512 0 1 0 2.138 2.138L19.831 62.45c.59-.59.59-1.547 0-2.138zM21.826 64.446l-5.845 5.845a1.512 1.512 0 1 0 2.139 2.138l5.845-5.844a1.512 1.512 0 1 0-2.139-2.139zM13.935 72.964c-.632 0-1.21.408-1.423 1.002a1.528 1.528 0 0 0 .487 1.697c.513.407 1.263.43 1.8.053a1.525 1.525 0 0 0 .532-1.819 1.52 1.52 0 0 0-1.396-.933z"/>
        <path d="M15.33 73.897c.039.091-.036-.09 0 0zM9.659 76.614l-.805.805a1.512 1.512 0 1 0 2.138 2.138l.805-.805a1.512 1.512 0 1 0-2.138-2.138zM8.568 63.306a1.512 1.512 0 0 0-2.138 0L.585 69.15a1.512 1.512 0 1 0 2.139 2.138l5.845-5.845c.59-.59.59-1.548 0-2.138zM10.982 62.726a1.528 1.528 0 0 0 1.138-1.318 1.524 1.524 0 0 0-.826-1.498 1.522 1.522 0 0 0-1.768.302 1.53 1.53 0 0 0-.164 1.893 1.53 1.53 0 0 0 1.62.62zM14.892 59.121l.804-.805a1.512 1.512 0 1 0-2.138-2.138l-.805.805a1.512 1.512 0 1 0 2.139 2.138z"/>
    </g>
    <defs>
        <clipPath id="a">
            <path fill="#fff" d="M0 0h80v80H0z"/>
        </clipPath>
    </defs>
</svg>
