<svg xmlns="http://www.w3.org/2000/svg" width="80" height="80" fill="none" viewBox="0 0 80 80">
    <path fill="#fff" d="M68.284 11.716C60.73 4.16 50.684 0 40 0c-4.666 0-9.221.793-13.563 2.359L25.548.828a1.563 1.563 0 0 0-1.35-.778h-.005c-.558.002-1.073.301-1.35.785l-6.18 10.77a1.563 1.563 0 0 0 1.355 2.34h.005l12.416-.034a1.564 1.564 0 0 0 1.347-2.347l-.534-.92A30.576 30.576 0 0 1 40 9.376c16.887 0 30.625 13.738 30.625 30.625S56.887 70.625 40 70.625 9.375 56.887 9.375 40c0-.863-.7-1.563-1.563-1.563h-6.25C.7 38.438 0 39.138 0 40c0 10.684 4.16 20.73 11.716 28.284C19.27 75.84 29.316 80 40 80c10.684 0 20.73-4.16 28.284-11.716C75.84 60.73 80 50.684 80 40c0-10.684-4.16-20.73-11.716-28.284zM40 76.875c-19.809 0-36.02-15.702-36.842-35.313h3.127c.382 8.429 3.845 16.298 9.85 22.303C22.51 70.239 30.985 73.75 40 73.75c9.015 0 17.49-3.51 23.865-9.885C70.239 57.49 73.75 49.015 73.75 40c0-9.015-3.51-17.49-9.885-23.865C57.49 9.761 49.015 6.25 40 6.25c-3.983 0-7.886.69-11.602 2.05a1.561 1.561 0 0 0-.814 2.252l.14.242-7.004.018 3.485-6.074.197.337a1.56 1.56 0 0 0 1.93.666A36.694 36.694 0 0 1 40 3.125c20.333 0 36.875 16.542 36.875 36.875S60.333 76.875 40 76.875z"/>
    <path fill="#fff" d="M59.224 20.776a1.557 1.557 0 0 0-2.203 0A1.566 1.566 0 0 0 57.029 23a1.56 1.56 0 0 0 2.204-.001c.61-.608.61-1.6.003-2.211l-.012-.011z"/>
    <path fill="#fff" d="M53.837 18.369c.42-.754.15-1.706-.605-2.126-5.062-2.824-11.032-3.958-16.81-3.195-5.968.788-11.38 3.46-15.646 7.728C15.64 25.91 12.813 32.738 12.813 40c0 7.262 2.827 14.09 7.963 19.224C25.91 64.36 32.738 67.188 40 67.188c7.262 0 14.09-2.828 19.224-7.964a27.14 27.14 0 0 0 4.113-33.184 1.563 1.563 0 0 0-2.68 1.607 24.02 24.02 0 0 1-3.642 29.368A23.905 23.905 0 0 1 40 64.062a23.905 23.905 0 0 1-17.015-7.047A23.905 23.905 0 0 1 15.938 40c0-6.428 2.503-12.47 7.047-17.015 7.572-7.572 19.384-9.222 28.726-4.013.754.42 1.705.15 2.126-.604z"/>
    <path fill="#fff" d="M41.583 21.328v-1.172a1.563 1.563 0 0 0-3.125 0v1.172a1.562 1.562 0 1 0 3.125 0zM38.417 58.672v1.172a1.563 1.563 0 0 0 3.125 0v-1.172a1.562 1.562 0 1 0-3.125 0zM57.11 40.02c0 .863.699 1.563 1.562 1.563h1.172a1.563 1.563 0 0 0 0-3.125h-1.172c-.863 0-1.563.7-1.563 1.562zM20.156 38.417a1.563 1.563 0 0 0 0 3.125h1.172a1.562 1.562 0 1 0 0-3.125h-1.172zM49.375 40c0-.863-.7-1.563-1.563-1.563h-7.165L28.933 26.724a1.562 1.562 0 1 0-2.21 2.21l12.172 12.172c.293.293.69.458 1.105.458h7.813c.862 0 1.562-.7 1.562-1.563z"/>
</svg>
